#N canvas 2 48 476 1131 10;
#X obj 35 114 drunk 10;
#X floatatom 35 169 5 0 0 0 - - -;
#X obj 35 35 metro 300;
#X obj 35 12 tgl 15 0 empty empty empty 0 -6 0 8 -262144 -1 -1 0 1
;
#X floatatom 57 63 5 0 0 0 - - -;
#X floatatom 80 87 5 0 0 0 - - -;
#X floatatom 86 15 5 0 0 0 - - -;
#X obj 35 140 + 21;
#X text 114 84 Step size;
#X text 90 61 Upper bound;
#X obj 38 191 hsl 128 15 21 108 0 0 empty empty empty -2 -8 0 10 -262144
-1 -1 2628 1;
#X obj 377 42 ctlout 1;
#X floatatom 377 17 0 0 0 0 - - -;
#X obj 35 254 makenote;
#X floatatom 57 215 5 0 0 0 - - -;
#X floatatom 80 234 5 0 0 0 - - -;
#X obj 118 293 noteout 1;
#X obj 187 116 drunk 10;
#X floatatom 187 171 5 0 0 0 - - -;
#X obj 187 37 metro 300;
#X obj 187 14 tgl 15 0 empty empty empty 0 -6 0 8 -262144 -1 -1 0 1
;
#X floatatom 209 65 5 0 0 0 - - -;
#X floatatom 232 89 5 0 0 0 - - -;
#X floatatom 238 17 5 0 0 0 - - -;
#X obj 187 142 + 21;
#X text 266 86 Step size;
#X text 242 63 Upper bound;
#X obj 190 193 hsl 128 15 21 108 0 0 empty empty empty -2 -8 0 10 -262144
-1 -1 292 1;
#X obj 187 256 makenote;
#X floatatom 209 217 5 0 0 0 - - -;
#X floatatom 232 236 5 0 0 0 - - -;
#X text 122 16 Period;
#X text 273 18 Period;
#X text 218 141 MIDI notes start at 21;
#X text 242 218 Velocity;
#X text 266 237 Duration (ms);
#X connect 0 0 7 0;
#X connect 1 0 10 0;
#X connect 2 0 0 0;
#X connect 3 0 2 0;
#X connect 4 0 0 1;
#X connect 5 0 0 2;
#X connect 6 0 2 1;
#X connect 7 0 1 0;
#X connect 10 0 13 0;
#X connect 12 0 11 0;
#X connect 13 0 16 0;
#X connect 13 1 16 1;
#X connect 14 0 13 1;
#X connect 15 0 13 2;
#X connect 17 0 24 0;
#X connect 18 0 27 0;
#X connect 19 0 17 0;
#X connect 20 0 19 0;
#X connect 21 0 17 1;
#X connect 22 0 17 2;
#X connect 23 0 19 1;
#X connect 24 0 18 0;
#X connect 27 0 28 0;
#X connect 28 0 16 0;
#X connect 28 1 16 1;
#X connect 29 0 28 1;
#X connect 30 0 28 2;
