#N canvas 489 115 561 716 10;
#X obj 67 77 adc~;
#X obj 33 164 env~;
#X obj 107 165 env~;
#X obj 25 258 vu 15 120 empty empty -1 -8 0 10 -66577 -1 1 0;
#X obj 102 259 vu 15 120 empty empty -1 -8 0 10 -66577 -1 1 0;
#X obj 43 113 *~ 0.01;
#X obj 102 107 *~ 0.01;
#X obj 30 215 - 100;
#X obj 103 216 - 100;
#X obj 214 261 Scope~ 214 182 99 3 128 -1 1 0 0 0 0 102 255 51 135
135 135 0;
#X obj 254 60 osc~;
#X floatatom 324 97 5 0 0 0 - - -;
#X msg 457 147 brgb 0 0 255;
#X msg 449 100 frgb 0 255 0;
#X text 434 83 colors;
#X msg 386 36 bufsize 200;
#X msg 398 63 range -1 -1;
#X obj 100 446 dac~;
#X connect 0 0 5 0;
#X connect 0 1 6 0;
#X connect 0 1 10 0;
#X connect 1 0 7 0;
#X connect 2 0 8 0;
#X connect 5 0 1 0;
#X connect 6 0 2 0;
#X connect 7 0 3 0;
#X connect 8 0 4 0;
#X connect 10 0 9 0;
#X connect 10 0 17 0;
#X connect 12 0 9 0;
#X connect 13 0 9 0;
#X connect 15 0 9 0;
#X connect 16 0 9 0;
