#N canvas 692 433 661 675 10;
#X obj 96 83 adc~;
#X obj 207 189 *~;
#X obj 239 188 *~;
#X obj 225 236 dac~;
#X obj 342 41 hsl 128 15 0 1000 0 0 empty empty empty -2 -8 0 10 -262144
-1 -1 11900 1;
#X obj 229 125 osc~;
#X obj 283 122 osc~;
#X obj 53 184 env~;
#X obj 127 185 env~;
#X obj 45 278 vu 15 120 empty empty -1 -8 0 10 -66577 -1 1 0;
#X obj 122 279 vu 15 120 empty empty -1 -8 0 10 -66577 -1 1 0;
#X obj 123 236 - 100;
#X obj 50 235 - 100;
#X connect 0 0 1 0;
#X connect 0 0 7 0;
#X connect 0 1 2 0;
#X connect 0 1 8 0;
#X connect 1 0 3 0;
#X connect 2 0 3 1;
#X connect 4 0 5 0;
#X connect 4 0 6 0;
#X connect 5 0 1 1;
#X connect 6 0 2 1;
#X connect 7 0 12 0;
#X connect 8 0 11 0;
#X connect 11 0 10 0;
#X connect 12 0 9 0;
