#N canvas 790 125 317 153 10;
#X obj 15 15 gemhead;
#X msg 47 41 device 0;
#X obj 22 71 pix_video;
#X obj 128 81 gemwin;
#X obj 22 93 pix_texture;
#X obj 22 115 rectangle 6 4;
#X msg 129 58 dimen 640 480 \, create \, 1;
#X connect 0 0 2 0;
#X connect 1 0 2 0;
#X connect 2 0 4 0;
#X connect 4 0 5 0;
#X connect 6 0 3 0;
